<?xml version="1.0" standalone="no"?>
<!DOCTYPE svg PUBLIC "-//W3C//DTD SVG 20010904//EN"
 "http://www.w3.org/TR/2001/REC-SVG-20010904/DTD/svg10.dtd">
<svg version="1.0" xmlns="http://www.w3.org/2000/svg"
 width="4063.000000pt" height="4063.000000pt" viewBox="0 0 4063.000000 4063.000000"
 preserveAspectRatio="xMidYMid meet">
<metadata>
Created by potrace 1.14, written by Peter Selinger 2001-2017
</metadata>
<g transform="translate(0.000000,4063.000000) scale(0.100000,-0.100000)"
fill="#000000" stroke="none">
<path d="M19935 40619 c-1065 -90 -2032 -499 -2825 -1194 -133 -117 -400 -390
-508 -520 -466 -559 -793 -1191 -977 -1889 -154 -586 -195 -1250 -114 -1861
165 -1239 794 -2354 1774 -3140 1173 -941 2723 -1282 4183 -920 857 212 1601
629 2230 1249 409 403 719 831 962 1331 606 1246 648 2700 116 3977 -291 699
-746 1324 -1321 1816 -237 203 -530 407 -795 554 -174 97 -213 116 -387 194
-453 201 -929 329 -1448 389 -166 20 -722 28 -890 14z"/>
<path d="M6555 29989 c-408 -29 -846 -159 -1198 -355 -440 -245 -812 -602
-1074 -1029 -138 -224 -267 -532 -333 -795 -71 -283 -95 -502 -87 -804 6 -219
20 -341 64 -536 211 -957 881 -1740 1791 -2094 94 -37 444 -142 1035 -310 490
-140 2165 -617 3722 -1061 1556 -443 2883 -819 2950 -835 113 -27 365 -77 858
-171 l217 -41 0 -3770 0 -3769 -1852 -5277 c-1018 -2902 -1868 -5333 -1890
-5402 -408 -1327 202 -2779 1436 -3416 300 -155 575 -244 931 -301 159 -26
662 -26 820 0 625 101 1148 356 1598 777 275 258 537 643 675 990 16 41 742
2021 1612 4400 870 2379 1598 4357 1618 4395 78 157 184 278 320 369 330 219
783 211 1108 -19 132 -94 264 -266 327 -425 14 -36 732 -1995 1595 -4355 864
-2360 1584 -4326 1602 -4370 83 -209 240 -477 400 -685 94 -122 358 -386 480
-480 433 -334 929 -539 1460 -605 165 -20 525 -20 690 0 637 79 1210 353 1669
800 536 523 838 1186 881 1933 20 359 -28 704 -149 1072 -32 96 -880 2518
-1885 5381 l-1826 5206 0 3775 0 3776 243 46 c618 119 723 140 901 186 327 83
7448 2117 7582 2166 580 210 1084 609 1430 1134 380 576 545 1282 458 1960
-122 951 -683 1763 -1534 2218 -592 316 -1317 411 -1972 258 -37 -9 -1752
-497 -3810 -1085 -3734 -1067 -3959 -1131 -4308 -1215 -1291 -313 -2516 -486
-3930 -558 -321 -16 -1420 -16 -1740 0 -1506 77 -2750 260 -4125 607 -181 46
-2006 562 -4055 1148 -2049 586 -3770 1077 -3826 1091 -138 35 -322 63 -489
76 -155 11 -227 11 -390 -1z"/>
</g>
</svg>
