<svg
xmlns="http://www.w3.org/2000/svg">

<symbol id="backward-fast" viewBox="0 0 512 512">
  <path d="M0 415.1V96.03c0-17.67 14.33-31.1 31.1-31.1C49.67 64.03 64 78.36 64
    96.03v131.8l171.5-156.5C256.1 54.28 288 68.66 288 96.03v131.9l171.5-156.5C480.1
    54.28 512 68.66 512 96.03v319.9c0 27.37-31.88 41.74-52.5 24.62L288 285.2v130.7c0
    27.37-31.88 41.74-52.5 24.62L64 285.2v130.7c0 17.67-14.33 31.1-31.1 31.1C14.33
    447.1 0 433.6 0 415.1z"/>
</symbol>

<symbol id="backward-step" viewBox="0 0 320 512">
  <path d="M31.1 64.03c-17.67 0-31.1 14.33-31.1 32v319.9c0 17.67 14.33 32 32 32C49.67
    447.1 64 433.6 64 415.1V96.03C64 78.36 49.67 64.03 31.1 64.03zM267.5 71.41l-192
    159.1C67.82 237.8 64 246.9 64 256c0 9.094 3.82 18.18 11.44 24.62l192 159.1c20.63
    17.12 52.51 2.75 52.51-24.62v-319.9C319.1 68.66 288.1 54.28 267.5 71.41z"/>
</symbol>

</svg>
